# xmcd CD database file
#
# Track frame offsets:
#	150
#	17596
#	35080
#	49572
#	70427
#	89009
#	108770
#	136005
#	155403
#	174366
#	191925
#	213389
#	243945
#	261792
#	277642
#
# Disc length: 3901 seconds
#
# Revision: 0
# Processed by: cddbd v1.5.2PL0 Copyright (c) Steve Scherf et al.
# Submitted via: CDex 1.51
#
DISCID=c90f3b0f
DTITLE=Yann Lem - Entre Blues et Granit
DYEAR=2012
DGENRE=Blues
TTITLE0=Dobro Blues
TTITLE1=Un Blues sur la 12
TTITLE2=Conseil d'ivrogne
TTITLE3=Pas encore mort
TTITLE4=Vagabond en sursis
TTITLE5=Baba Boogie
TTITLE6=Hey Jo
TTITLE7=Comptoir blues
TTITLE8=Riopelle blues
TTITLE9=Totale pollution
TTITLE10=Ar Korriganed Blues
TTITLE11=Blues déprime
TTITLE12=Pas encore mort (Version radio)
TTITLE13=Ar Korriganed Blues (Version radio)
TTITLE14=Dernières notes de magie
EXTD=YEAR: 2012
EXTT0=
EXTT1=
EXTT2=
EXTT3=
EXTT4=
EXTT5=
EXTT6=
EXTT7=
EXTT8=
EXTT9=
EXTT10=
EXTT11=
EXTT12=
EXTT13=
EXTT14=
PLAYORDER=
